<svg version="1" xmlns="http://www.w3.org/2000/svg" width="346.667" height="346.667" viewBox="0 0 260.000000 260.000000"><path d="M130.5 12.4c-9.2 1.5-16.9 3.8-23.5 7.1-8.3 4.2-22.7 14.3-25.3 17.7-5.9 7.7-9.7 22.7-12 46.8l-1.2 13.5-3.2.3c-3.9.4-7.9 4.3-10.6 10.2-2.8 6.3-3.5 22.9-1.3 32.3 1.9 8.2 4.8 14.2 8 16.2 2 1.4 2.4 2.7 3 9.8 1.6 18.3 5.2 26.4 20.8 46.2 1.7 2.2 1.7 2.5-1.2 8.1-1.6 3.3-3 6.4-3 7.1 0 1.5-4 2.8-16.3 5.3-10.6 2.1-15.5 4-18.2 7-3.4 3.8.7 5.4 5.3 2 2.7-1.9 22.6-7 27.7-7 3.1 0 3.4.8 4.9 11.8.9 6.5 1.5 8.7 2.6 8.7 1.2 0 1.6-2.1 2.1-9.5.4-7.6 1.2-10.9 3.6-16.5 1.7-3.9 3.6-8.8 4.3-11 2.1-7.3 1.9-6.9 3.6-5.4 1.4 1.1 1.5 2.7.9 10-.6 8.1-.5 8.8 1.4 9.8 1.1.6 2.9 1.1 4 1.1 2.9 0 18.4-8.3 26.4-14.1 3.7-2.7 7.4-4.9 8.2-4.9 4.9 0-2.9 9.1-14.3 16.9-6.4 4.3-8.2 6.1-6 6.1 2.1 0 13.3-7.7 19.4-13.2 3-2.8 5.7-4.8 6.1-4.5 2.5 2.5-7.7 14.8-16.5 20-5.5 3.2-7.7 5.7-4.9 5.7 1.9 0 12.3-7.3 17.5-12.3 4.5-4.4 4.7-3.2.6 3.4-2 3.3-8.8 9.8-16.4 15.8-1.4 1-2.2 2.3-1.8 2.7 1 1 7.1-3.2 14.2-9.7 5.7-5.2 5.8-5.2 4.1-1.9-1 1.9-4.2 6-7.1 9.1-3 3.1-5.4 5.9-5.4 6.2 0 2 4.3.2 8.4-3.4l4.6-4.1 7 2.7c3.9 1.5 8.7 2.9 10.8 3.2 4.5.6 5.1-.3 9.8-13.2l3.2-9 3.9.3c2.1.2 8.2 1.2 13.7 2.2 7.4 1.5 10.7 2.6 13.3 4.7 6 4.7 6.2 4.8 7.3 3.7.9-.9.3-2.1-2.1-4.8-4.5-5.1-7-6.2-20-8.6-6.3-1.1-12.1-2.2-13-2.5-1.3-.4-6.9-12.6-6.9-15 0-.4 2.6-3.6 5.9-7 3.2-3.4 7.5-9 9.5-12.4 2.8-4.5 4.3-6.1 6-6.1 8 0 23.2-17.5 27.6-31.8 3.8-12.4 2.3-19.5-4.8-22.8-.2-.1 1.5-3.9 3.8-8.4 8.4-16.7 15-42 13.5-51.9-.4-2.5-2.9-8.8-5.6-14-2.7-5.1-4.9-10.1-4.9-11-.1-4.5-8.4-17.1-11.3-17.1-.5 0-.7 1.3-.3 3 .3 1.6.3 3 .1 3-.3 0-4-3.3-8.4-7.3-9.6-8.8-18-13.9-28.6-17.4-6.7-2.1-10.3-2.6-21.5-2.9-8-.2-16.7.2-21.5 1zm-9.8 37.3c3.4 1.6 6.7 5.3 14.7 16.6 4.5 6.2 10.9 10.9 14.6 10.6 1.4-.1 4.3.6 6.5 1.6 4.8 2.1 15.4 3 17.5 1.5 1.3-.9 1.3-1.2-.3-2.4s-1.5-1.4 1.4-2c1.7-.3 4-.6 5-.6s3-.5 4.6-1.1l2.8-1.1-2.8-2.2-2.9-2.3 2.5-.7c3.3-.8 11.7.9 16.5 3.3 4.3 2.2 9.8 8 11.3 11.8 1.6 4.2 1 12.9-1.5 21-1.3 4.3-3.1 12.7-4.1 18.8-2.1 13.9-9.5 39.7-14 48.9-4 8.3-13 19-15.3 18.1-.8-.3-2.3.2-3.4 1.1-1 1-2.6 1.8-3.6 1.9-.9.1-2.8.8-4.2 1.5-1.4.8-3.4 1.5-4.5 1.6-1.1.1-2.7.4-3.6.8-1.3.6-1.8 0-2.3-2.6-1.3-7-9.8-13.1-23.7-17.2-20.5-5.9-31.8-5.6-38.5 1-3.3 3.4-5.4 4.3-5.4 2.4 0-.6-1.6-2.6-3.5-4.6-1.9-1.9-3.5-3.9-3.5-4.4 0-.6-.6-1-1.4-1-.8 0-1.8-1-2.1-2.2-.4-1.1-1.8-3.1-3.1-4.3-1.9-1.8-2.6-3.9-3.4-9.7-2.1-16.7 2.9-41.1 13.1-63.9 2.2-4.8 4.7-12.9 5.8-18.1 2.6-13.1 5.9-18.9 12.6-22.6 3.1-1.7 14.2-1.4 18.2.5zm-52.3 54.9c.3.9.6 2.8.6 4.2v2.6l-1.6-2.2c-1.9-2.8-3.9-3-2.4-.3 1.5 2.9 1.2 5.7-1 10.1-1.1 2.2-1.9 5.4-1.9 7.2.1 2 .3 2.5.6 1.3.8-3.7 3.6-9.5 4.6-9.5.6 0 .7 1.8.3 4.7-.4 2.7-1.1 8.1-1.6 12.2-1.1 8.1-1.6 9.3-3 7.1-1.5-2.3-1.2-.6.5 2.6 1 2 1.2 3.9.6 5.9l-.8 3-1.5-3c-6.8-13-6.9-38.2-.1-45.7 2-2.2 5.9-2.3 6.7-.2zm147.7 37c1.9 2.3 1.3 11.2-1.1 17.7-3.5 9.4-17.2 25.7-21.5 25.7-2.1 0-.3-3.6 3.3-6.9 1.5-1.3 2.1-2 1.5-1.7-1.9 1-1.7.1 2.9-12.1 2.3-6.2 4.6-11 5.1-10.6.9.6.5 7.1-.8 10.8-.3 1.1.1.7 1-.8.9-1.6 1.9-5.4 2.2-8.5.4-4.5 1-6.2 3.1-7.9 3-2.5 2.5-4-.8-2.3-3 1.6-3.4.8-.9-2.3 2.3-3.1 4.1-3.4 6-1.1zM125 185.1c13.6 3.5 18.2 5.7 19.4 9.2 2.1 5.8-6.4 11.6-13.8 9.6-3.6-1-7-4.8-4.4-5 1.6-.1-4.6-2.4-9-3.4-2.6-.5-3.1-.4-2.6.9.9 2.4-4.1 3.2-8.2 1.2-6.5-3-8.9-10.4-4.8-14.6 1.2-1.2 1.4-1.2 1.4.3 0 1 1.1 1.9 2.8 2.3 1.5.3 5.4 1.3 8.7 2.1 3.3.8 8.7 2.1 12 2.9 3.3.7 8 2 10.4 2.8 2.4.9 4.7 1.3 5.2 1 3.1-1.9-.9-3.5-22.5-8.9-7.6-1.9-14.2-3.7-14.5-4.1-1-1 7.7.6 19.9 3.7zm-33.6 37.1c-.3 1.2-1.9 4.9-3.5 8.2l-2.9 6.1.5-4.3c.6-4.9 4-12.2 5.6-12.2.6 0 .8.9.3 2.2zm77.5 2.1c1.2 2.4 2.1 6.1 2.1 8.3 0 7-5.3 22.4-7.6 22.4S149 244.8 149 243c0-.9 2.6-3.4 5.7-5.6 6.3-4.3 10.3-9.4 10.3-13 0-3.4-1.6-3-2.9.7-1.1 3.3-2.5 3.2-3.4-.1-.6-2.3 2.5-5 5.9-5 1.6 0 2.8 1.2 4.3 4.3zm-13.9 3.9c1.1 1.8 2 3.6 2 4.1 0 .7-5.9 4.7-7.1 4.7-.7 0 .5-9.2 1.4-10.8 1.2-1.8 1.5-1.6 3.7 2zm-47.3 1.4c-.3.3-1.2.4-1.9.1-.8-.3-.5-.6.6-.6 1.1-.1 1.7.2 1.3.5z"/><path d="M101.5 93.2c-2.8 1.5-6.5 5-6.5 6 0 .5 1.4.1 3.1-.8 5.2-2.6 9.2-2 19.4 3.1 9.3 4.7 13 5.2 12.3 1.8-.4-2.2-6.9-6.7-13.6-9.2-5.9-2.3-11.6-2.6-14.7-.9zM98.9 112c-2 1.1-3.9 2.6-4.3 3.5-1.5 4 7.7 13.9 13.9 15.1 4.5.8 9.9.1 14.9-2 3.7-1.5 3.8-1.7 3.2-5.3-1.8-10.2-17.6-16.6-27.7-11.3zm9.1 1.4c0 1.1-1.9 1.5-2.5.6-.3-.5.1-1 .9-1 .9 0 1.6.2 1.6.4zm-6.8 3.7c.2 1.2 1.5 3.1 3 4.2 3.8 2.9 7.9 1.5 9.3-3.1.5-1.7 1.5-3.2 2.3-3.2 2.2 0 8.2 6.6 8.2 9 0 4.4-11.8 6.6-18.7 3.3-4.7-2.2-9.1-8.7-7.3-10.8 1.7-2.1 2.8-1.9 3.2.6zM157.1 115.8c-.8.6-1.1 1.7-.8 2.5.4 1.1 2.9 1.7 9.4 2.1 16 1.2 16.9 1.4 20.2 5.2 3.4 3.9 4.1 4.1 4.1 1.6 0-2.9-3.7-8-7.2-9.8-3.8-2-23.3-3.2-25.7-1.6zM146.6 127.2c-.9 5.4-2.6 21.2-2.5 22.8.3 4.3 3.1-8.8 3.6-16.8.6-9-.1-12.5-1.1-6zM155.3 126.5c-7.4 4.5-6.5 8.7 3.1 15.2 6.1 4.1 12.8 4.5 19.6 1 6.4-3.2 6.6-6.5.8-12.1-7.2-6.9-16.2-8.4-23.5-4.1zm21.3 5.9c1.9 1.9 3.4 4.1 3.4 5 0 4.1-11 7.1-17.3 4.7-3.7-1.4-9.7-7.1-9.7-9.1 0-2.8 2.7-3.2 3.4-.6.3 1.4 1.9 2.9 3.7 3.6 2.7 1.1 3.3 1.1 5.7-.7 1.5-1.1 2.8-3 3-4.2.5-3.2 3.9-2.6 7.8 1.3zM114.2 156.2c-.7.7-1.2 2.7-1.2 4.5 0 2.9.4 3.3 4 4.3 2.2.6 4 1.5 4 2.1 0 .5 1.1 2.1 2.5 3.4 2.9 2.9 7.9 3.3 11.4.9 1.8-1.3 2.8-1.4 4.7-.5 4.4 2 7.2-1.3 6.1-7-.3-1.9-.5-1.8-.6.7-.2 4.3-2.1 5.8-5.5 4.3-2.2-1-3.2-.9-6.1.6-4.1 2.3-8.3 1.3-10.1-2.4-1.5-2.9-3.2-4.1-6.1-4.1-2.9 0-3.4-1.1-2.3-4.9 1-3.5.9-3.6-.8-1.9z"/></svg>