<?xml version="1.0" standalone="no"?>
<!DOCTYPE svg PUBLIC "-//W3C//DTD SVG 20010904//EN"
 "http://www.w3.org/TR/2001/REC-SVG-20010904/DTD/svg10.dtd">
<svg version="1.0" xmlns="http://www.w3.org/2000/svg"
 width="260.000000pt" height="260.000000pt" viewBox="0 0 260.000000 260.000000"
 preserveAspectRatio="xMidYMid meet">
<metadata>
Created by potrace 1.11, written by Peter Selinger 2001-2013
</metadata>
<g transform="translate(0.000000,260.000000) scale(0.100000,-0.100000)"
fill="#000000" stroke="none">
<path d="M1275 2470 c-112 -20 -165 -39 -245 -87 -172 -105 -197 -124 -231
-180 -52 -83 -90 -261 -105 -480 l-7 -103 -32 0 c-68 0 -118 -79 -135 -215
-11 -83 -6 -144 17 -220 31 -108 45 -135 72 -150 27 -13 28 -18 34 -107 10
-156 56 -265 174 -410 35 -43 60 -78 55 -78 -9 0 -62 -109 -62 -128 0 -10 -93
-34 -204 -52 -32 -5 -61 -12 -64 -14 -2 -3 11 -13 30 -22 34 -16 41 -15 135 5
54 11 102 21 105 21 3 0 14 -35 23 -77 24 -106 22 -103 40 -103 12 0 15 14 15
77 0 68 4 86 40 162 21 47 42 105 46 129 8 48 17 52 40 17 14 -21 14 -32 4
-77 -6 -29 -13 -61 -15 -71 -5 -26 22 -47 61 -47 53 0 230 99 311 173 32 30
53 29 53 -3 0 -26 -83 -104 -162 -153 -37 -23 -68 -48 -68 -56 0 -7 6 -11 15
-8 39 16 157 102 198 146 38 41 48 47 58 35 9 -11 7 -20 -6 -41 -45 -69 -93
-117 -157 -155 -64 -38 -83 -58 -55 -58 26 0 134 73 174 118 51 57 55 46 10
-28 -22 -37 -58 -74 -108 -112 -73 -57 -92 -78 -69 -78 18 0 154 104 180 137
20 27 20 26 -2 -17 -13 -25 -49 -71 -82 -103 -57 -56 -58 -57 -30 -57 19 0 42
12 69 37 l39 36 67 -23 c44 -15 77 -20 94 -16 27 7 27 7 9 27 -10 12 -40 36
-66 56 -27 19 -48 43 -48 52 0 11 22 31 57 52 64 38 103 87 103 130 0 33 -15
46 -28 23 -6 -11 -12 -13 -16 -6 -8 14 31 35 50 28 22 -8 54 -86 54 -131 0
-22 -13 -78 -29 -125 -16 -47 -28 -86 -26 -88 1 -1 9 0 18 4 9 3 27 43 44 95
19 60 33 89 43 89 8 0 51 -7 95 -15 105 -19 159 -19 175 0 16 19 -10 29 -95
39 -33 3 -85 11 -116 17 -55 11 -57 12 -69 53 -6 22 -20 56 -31 74 l-19 33 63
63 c37 37 78 91 98 130 30 57 38 66 62 66 43 0 78 23 147 96 88 95 142 208
148 312 4 68 1 80 -18 105 -12 15 -28 27 -36 27 -8 0 -14 3 -14 6 0 3 25 56
55 117 59 118 108 287 121 411 8 80 -11 146 -65 226 -25 36 -40 72 -44 104 -8
53 -35 104 -76 142 -36 33 -43 30 -35 -13 l7 -38 -90 86 c-102 99 -204 155
-337 189 -101 25 -271 26 -411 0z m-79 -360 c39 -15 85 -62 126 -131 22 -39
59 -85 81 -104 36 -31 92 -54 104 -42 2 3 28 -6 56 -19 57 -26 143 -32 179
-13 l21 12 -23 12 c-20 11 -18 13 35 19 90 10 118 32 69 54 -41 19 -18 35 41
29 118 -12 220 -89 244 -183 13 -52 8 -93 -24 -179 -13 -33 -28 -105 -34 -160
-13 -111 -88 -398 -129 -490 -33 -76 -68 -129 -123 -183 -33 -32 -45 -39 -47
-27 -3 12 -11 9 -40 -17 -32 -27 -37 -29 -40 -14 -3 16 -8 14 -33 -10 -22 -21
-32 -25 -38 -16 -6 10 -10 10 -21 -3 -19 -23 -40 -18 -40 8 0 13 -13 42 -29
65 -37 50 -120 92 -251 127 -192 51 -286 44 -352 -26 l-38 -40 -16 35 c-10 19
-22 32 -29 29 -8 -2 -18 10 -25 33 -8 24 -15 32 -20 24 -9 -15 -40 37 -40 66
0 13 -3 14 -14 5 -25 -21 -41 51 -40 184 1 176 57 392 147 572 25 48 38 92 46
152 19 146 71 225 160 242 38 7 101 2 137 -11z m-515 -540 c5 0 9 -17 9 -37
l0 -37 -22 24 -23 25 -3 -22 c-2 -12 2 -31 8 -43 9 -17 7 -26 -9 -47 -31 -39
-44 -95 -29 -130 l11 -28 7 40 c3 22 14 54 23 70 14 27 16 28 17 8 0 -12 -4
-44 -9 -70 -6 -26 -13 -70 -16 -98 -7 -48 -7 -49 -21 -25 -12 23 -13 24 -14 4
0 -12 9 -33 20 -47 20 -25 28 -87 11 -87 -16 0 -30 26 -53 96 -26 80 -31 240
-10 311 15 52 59 106 79 99 8 -4 19 -6 24 -6z m1477 -378 c38 -24 18 -144 -41
-257 -33 -60 -145 -180 -178 -188 -23 -6 -23 -4 -4 33 8 16 23 31 34 35 22 7
59 45 43 45 -6 0 -14 -4 -17 -10 -3 -5 -10 -10 -14 -10 -7 0 29 111 67 210 4
9 7 3 10 -16 2 -18 -4 -48 -12 -68 -19 -47 -2 -57 24 -14 14 23 20 51 20 89 0
51 3 59 32 82 26 22 28 27 14 33 -9 3 -28 -1 -42 -10 l-25 -17 23 35 c23 36
41 43 66 28z m-913 -442 c60 -16 123 -33 139 -39 47 -18 22 -24 -31 -8 -26 9
-66 18 -88 22 -22 4 -66 15 -97 26 -32 10 -68 19 -82 19 -14 0 -28 5 -32 11
-9 14 45 6 191 -31z m-216 23 c-4 -24 6 -31 56 -37 30 -3 77 -15 105 -26 28
-11 64 -20 80 -20 17 0 53 -9 82 -20 65 -25 78 -25 78 -2 0 14 2 15 10 2 28
-43 -20 -108 -85 -116 -66 -8 -125 36 -68 51 24 6 12 11 -71 31 -99 24 -126
26 -87 4 27 -14 18 -30 -16 -30 -88 0 -149 96 -101 158 12 14 19 16 17 5z
m-115 -395 c-3 -11 -20 -49 -36 -82 -27 -56 -29 -58 -25 -24 7 48 43 128 57
128 7 0 9 -8 4 -22z m636 -68 c11 -21 20 -41 20 -42 0 -6 -70 -41 -74 -37 -4
3 5 51 20 107 5 20 12 14 34 -28z m-470 -4 c0 -11 -19 -15 -25 -6 -3 5 1 10 9
10 9 0 16 -2 16 -4z"/>
<path d="M1025 1678 c-27 -15 -65 -49 -75 -69 -7 -12 2 -10 38 8 58 30 79 27
179 -30 43 -24 86 -46 95 -50 20 -7 49 18 42 36 -11 31 -191 118 -241 117 -10
0 -27 -6 -38 -12z"/>
<path d="M1000 1489 c-34 -14 -60 -39 -60 -59 0 -29 58 -98 99 -120 50 -25
120 -26 185 -3 47 17 48 18 43 54 -7 54 -35 89 -92 115 -53 25 -130 31 -175
13z m82 -31 c-9 -9 -15 -9 -24 0 -9 9 -7 12 12 12 19 0 21 -3 12 -12z m-72
-32 c0 -30 34 -56 71 -56 28 0 69 39 69 66 0 23 20 16 57 -21 61 -61 30 -105
-78 -105 -65 0 -111 25 -142 78 -15 26 -17 35 -7 47 18 22 30 18 30 -9z"/>
<path d="M1575 1447 c-16 -13 -18 -19 -9 -34 9 -15 29 -19 130 -23 65 -3 125
-9 132 -13 7 -5 27 -28 44 -50 l31 -42 -6 41 c-11 89 -62 118 -222 130 -63 5
-84 3 -100 -9z"/>
<path d="M1468 1350 c-4 -14 -8 -47 -8 -75 0 -27 -7 -77 -15 -111 -9 -40 -11
-71 -5 -90 l8 -29 1 28 c1 16 8 53 16 82 10 34 15 83 13 137 -2 55 -5 75 -10
58z"/>
<path d="M1562 1344 c-18 -9 -41 -29 -52 -44 l-20 -27 28 -36 c59 -76 137
-105 225 -82 27 7 60 23 73 36 l23 24 -18 42 c-37 80 -178 128 -259 87z m68
-18 c0 -11 -19 -15 -25 -6 -3 5 1 10 9 10 9 0 16 -2 16 -4z m145 -58 c14 -16
25 -36 25 -43 0 -22 -47 -53 -91 -60 -77 -13 -195 69 -175 121 7 17 9 17 22
-8 26 -50 79 -63 114 -28 11 11 20 31 20 44 0 23 2 24 30 15 16 -6 41 -24 55
-41z"/>
<path d="M1148 1043 c-25 -30 -29 -54 -13 -79 9 -13 21 -24 29 -24 7 0 30 -16
50 -35 44 -41 78 -52 112 -36 14 6 44 11 68 11 29 0 48 6 59 18 19 21 22 59 7
82 -7 11 -10 6 -10 -20 0 -57 -12 -66 -55 -46 -28 14 -43 15 -66 7 -34 -12
-53 -7 -92 26 -16 13 -42 23 -58 23 -37 0 -45 19 -24 59 18 35 15 39 -7 14z"/>
</g>
</svg>
